<svg xmlns="http://www.w3.org/2000/svg" width="256" height="256"><path fill-opacity=".016" d="M0 128.004v128.004l128.25-.254 128.25-.254.254-127.75L257.008 0H0v128.004m.485.496c0 70.4.119 99.053.265 63.672.146-35.38.146-92.98 0-128C.604 29.153.485 58.1.485 128.5" fill="#1976D2" fill-rule="evenodd"/><path fill-opacity=".295" d="M52.207 34.138c-7.488 2.877-15.26 10.715-18.068 18.221-2.188 5.848-2.19 5.915-1.915 76.997L32.5 200.5l2.735 5.187c3.577 6.784 8.96 11.975 15.765 15.204l5.5 2.609H128c71.351 0 71.51-.005 76.217-2.179 6.626-3.061 14.129-10.424 16.925-16.607l2.358-5.214v-144l-3.579-6.5c-2.353-4.274-5.264-7.79-8.5-10.266-9.026-6.907-6.919-6.74-84.353-6.682-67.488.051-69.726.113-74.861 2.086" fill="#1976D2" fill-rule="evenodd"/><path fill-opacity=".582" d="M55.951 33.345c-8.959 2.449-17.184 9.6-21.314 18.533C32.517 56.463 32.5 57.077 32.5 128v71.5l2.939 5.804c3.236 6.392 8.19 11.392 14.766 14.903L54.5 222.5h147l5.319-2.946c6.476-3.588 10.64-8.174 14.08-15.508l2.601-5.546v-70c0-65.121-.127-70.364-1.82-75.22-2.418-6.932-9.322-14.466-16.477-17.98l-5.703-2.8-69.5-.199c-52.825-.151-70.592.099-74.049 1.044m21.353 43.611c-9.21 5.616-10.428 17.79-2.519 25.179 5.382 5.028 10.63 5.865 16.992 2.708 6.297-3.126 9.223-7.649 9.223-14.259 0-9.18-6.643-15.588-16.151-15.58-2.545.002-5.675.812-7.545 1.952" fill="#1976D2" fill-rule="evenodd"/><path fill-opacity=".973" d="M54.365 34.089c-8.538 2.474-18.026 12.225-20.371 20.933-.678 2.517-.94 28.215-.764 74.658l.27 70.82 2.267 4.6c2.902 5.89 8.396 11.391 14.733 14.75l5 2.65H127c67.927 0 71.747-.095 76.441-1.906 6.27-2.418 12.98-8.578 16.398-15.054l2.661-5.04v-145l-2.453-4.984c-3.365-6.84-9.944-12.96-16.614-15.455-5.379-2.013-7.149-2.059-75.721-1.971-38.828.05-71.613.497-73.347.999m4.848 20.407C52.906 57.257 53 56.178 53 125.468c0 34.393.264 62.532.587 62.532.322 0 18.21-14.689 39.75-32.642 24.777-20.651 41.078-33.528 44.375-35.056 8.708-4.033 20.088-3.176 27.913 2.104 1.719 1.16 10.606 8.512 19.75 16.337L202 152.972V59.374l-3.065-2.937-3.066-2.937-66.684-.222c-56.189-.187-67.202.005-69.972 1.218m85.76 85.219c-4.869 3.377-75.137 62.285-74.314 62.3.463.008 28.67.001 62.684-.015 41.196-.019 62.498-.379 63.804-1.078 3.694-1.978 5.845-6.983 5.849-13.613l.004-6.192-22.75-19.345c-12.512-10.639-24.048-20.341-25.635-21.558-3.463-2.658-6.317-2.805-9.642-.499" fill="#1976D2" fill-rule="evenodd"/></svg>